<svg xmlns="http://www.w3.org/2000/svg" id="prefix__like" width="42.776" height="40.993" viewBox="0 0 42.776 40.993">
    <defs>
        <style>
            .prefix__cls-1{fill:#00a73e}
        </style>
    </defs>
    <g id="prefix__Grupo_5" data-name="Grupo 5">
        <g id="prefix__Grupo_4" data-name="Grupo 4">
            <path id="prefix__Caminho_6" d="M42.776 35.174a3.96 3.96 0 0 0-1.16-2.805 4.425 4.425 0 0 0 1.141-3.4 4.607 4.607 0 0 0-4.648-4.041H27.1a25.626 25.626 0 0 0 1.417-7.128c0-3.866-3.285-7.129-5.347-7.129a5.6 5.6 0 0 0-3.23 1.085.892.892 0 0 0-.335.7V18.5L14.47 29.62l-.212.109v-.34a.892.892 0 0 0-.891-.891H4.456A4.46 4.46 0 0 0 0 32.946V47.2a4.46 4.46 0 0 0 4.456 4.46H9.8a4.466 4.466 0 0 0 4.2-2.946 11.619 11.619 0 0 0 4.718 1.164h16.36a4.1 4.1 0 0 0 4.039-3.112 4.023 4.023 0 0 0-.321-2.679 4 4 0 0 0 1.784-5.347 3.994 3.994 0 0 0 2.196-3.566zm-3.759 2.2a.891.891 0 0 0-.51 1.535 2.208 2.208 0 0 1-1.271 3.812.891.891 0 0 0-.51 1.535 2.2 2.2 0 0 1 .645 2.126 2.306 2.306 0 0 1-2.3 1.715H18.714A8.449 8.449 0 0 1 14 46.574a.892.892 0 0 0-1.522.631A2.677 2.677 0 0 1 9.8 49.878H4.456A2.677 2.677 0 0 1 1.782 47.2V32.946a2.677 2.677 0 0 1 2.673-2.673h8.02v.891a.9.9 0 0 0 .424.759.911.911 0 0 0 .866.037l1.782-.891a.89.89 0 0 0 .41-.422l5.347-11.585a.908.908 0 0 0 .082-.374v-5.756a3.758 3.758 0 0 1 1.782-.483c.977 0 3.565 2.428 3.565 5.347 0 3.137-1.707 7.659-1.723 7.7a.89.89 0 0 0 .832 1.208h12.266a2.814 2.814 0 0 1 2.873 2.422 2.663 2.663 0 0 1-1.269 2.522.892.892 0 0 0 .061 1.552 2.207 2.207 0 0 1-.756 4.169z" class="prefix__cls-1" data-name="Caminho 6" transform="translate(0 -10.667)"/>
        </g>
    </g>
    <g id="prefix__Grupo_7" data-name="Grupo 7" transform="translate(12.476 19.606)">
        <g id="prefix__Grupo_6" data-name="Grupo 6">
            <path id="prefix__Caminho_7" d="M150.224 245.333a.892.892 0 0 0-.891.891v16.041a.891.891 0 1 0 1.782 0v-16.041a.892.892 0 0 0-.891-.891z" class="prefix__cls-1" data-name="Caminho 7" transform="translate(-149.333 -245.333)"/>
        </g>
    </g>
</svg>
