<svg xmlns="http://www.w3.org/2000/svg" width="85.194" height="74.648" viewBox="0 0 85.194 74.648">
    <defs>
        <style>
            .prefix__cls-2{stroke:#fff;fill:#fff}
        </style>
    </defs>
    <g id="prefix__Grupo_1" data-name="Grupo 1" transform="translate(547.02 -149.546)">
        <path id="prefix__Caminho_1" d="M-525.341 163.622s-24.3 15.663-20.2 37.577 42.638 25.7 42.638 25.7-7.027-11.557-15.245-28.677a78.5 78.5 0 0 1-7.193-34.6z" data-name="Caminho 1" transform="translate(0 -4.431)" style="stroke:#fff;fill:#96d701;stroke-width:2px"/>
        <path id="prefix__Caminho_2" d="M-509.143 163.354c-1.247 2.862-.935 18.448 9.04 37.774s11.533 24.625 16.832 23.378 10.6-.623 7.481-7.793c-1.415-3.255-10.525-15.539-15.274-25.872-5.531-12.035-8.19-24.68-7.169-25.872 1.87-2.181-9.667-4.478-10.91-1.615z" class="prefix__cls-2" data-name="Caminho 2" transform="translate(-11.834 -3.907)"/>
        <path id="prefix__Caminho_3" d="M-475.378 223.34c1.247-2.862.935-18.448-9.04-37.774s-11.533-24.625-16.832-23.378-10.6.623-7.481 7.793c1.415 3.255 10.525 15.539 15.274 25.872 5.531 12.035 8.19 24.68 7.169 25.872-1.87 2.181 9.663 4.475 10.91 1.615z" class="prefix__cls-2" data-name="Caminho 3" transform="translate(12.444 -12)"/>
        <path id="prefix__Caminho_4" d="M-483.86 196.065s18.652-3.429 18.964-5.3 4.987 6.858 4.987 6.858-19.014 7.481-20.573 6.546-3.378-8.104-3.378-8.104z" class="prefix__cls-2" data-name="Caminho 4" transform="translate(-20.235 -13.183)"/>
        <path id="prefix__Caminho_5" d="M-496.969 243.642s-28.572-21.235-30.6-28.529" data-name="Caminho 5" transform="translate(-6.004 -21.196)" style="fill:none;stroke-linecap:round;stroke-width:2.5px;stroke:#fff"/>
    </g>
</svg>
