<svg width="20" height="20" viewBox="0 0 20 20" fill="none" xmlns="http://www.w3.org/2000/svg">
<path d="M9.32467 3.84109L9.99998 5.23908L10.6753 3.84111C10.9824 3.20546 11.489 2.36622 12.2244 1.72202C12.9757 1.06386 13.7982 0.75 14.6875 0.75C17.1649 0.75 19.25 3.06856 19.25 6.52717C19.25 10.2007 17.2981 12.7528 12.9791 16.922L13.5 17.4616L12.9791 16.922C12.6818 17.209 12.2193 17.5283 11.6568 17.9167C11.6308 17.9346 11.6046 17.9527 11.5782 17.971C11.0595 18.3293 10.4703 18.7404 10 19.1803C9.52979 18.7404 8.94041 18.3292 8.42164 17.9708C8.39522 17.9526 8.369 17.9345 8.343 17.9165C7.78048 17.5281 7.318 17.2088 7.0209 16.922L7.02089 16.922C2.70141 12.7524 0.75 10.2007 0.75 6.52717C0.75 3.06856 2.83506 0.75 5.3125 0.75C6.20182 0.75 7.02431 1.06386 7.77559 1.72202L8.2698 1.15788L7.77559 1.72202C8.51096 2.36623 9.0176 3.20543 9.32467 3.84109Z" stroke="#985A4D" stroke-width="1.5"/>
</svg>
